{"title":"Fast.AndFurious-Tokyo.Drift.DvDrip[Eng-Hindi]Dual.Audio-ahl07","uid":5442565,"size":831017239,"categoryP":"video","categoryS":"movies","magnet":"?xt=urn:btih:581ad6e2d3f9cd640b05bbe3f01a60b7346213b5&amp;dn=Fast.AndFurious-Tokyo.Drift.DvDrip%5BEng-Hindi%5DDual.Audio-ahl07&amp;tr=udp%3A%2F%2Ftracker.openbittorrent.com%3A80&amp;tr=udp%3A%2F%2Fopen.demonii.com%3A1337&amp;tr=udp%3A%2F%2Ftracker.coppersurfer.tk%3A6969&amp;tr=udp%3A%2F%2Fexodus.desync.com%3A6969","seeders":4,"leechers":0,"uploader":"ahl07","files":-1,"time":1268925806,"description":"HD DESI ROCKERS GROUP RELEASES\n\n\nINFO:\n\nTitle..................: The Fast And The Furious - Tokyo Drift\nYear...................: 2006\nGenre..................: Action | Racing\nDirecter...............: Justin Lin\nRun time...............: 1h 44mn 14sec\nsize ..................: 792 MB\nLanguages..............: English.Hindi\n\n___________________________________________________________________________\n\nVideo\n\nFormat                           : MKV\nDuration                         : 1h 44mn 14sec\nDisplay aspect ratio             : 16:9\nResolution                       : 648*276\nStream size                      : 611 MiB \n_______________________________________________________________________________\n\n\nAudio #1 :English\nID                               : 1\nFormat                           : MPEG 1 Layer 3\nDuration                         : 1h 44mn 14sec\nBit rate mode                    : Constant\nBit rate                         : 96 Kbps\nChannel(s)                       : 2 channels\nChannel positions                : Front: L R\nSampling rate                    : 48.0 KHz\nStream size                      : 83.5 MiB \n\n____________________________________________________________________________\n\n\nAudio #2 :Hindi\nID                               : 2\nFormat                           : MPEG 1 Layer 3 \nDuration                         : 1h 44mn 14sec\nBit rate mode                    : Constant\nBit rate                         : 128 Kbps\nChannel(s)                       : 2 channels\nChannel positions                : Front: L R\nSampling rate                    : 48 Hz\nStream size                      : 95.4 MiB\n__________________________________________________________________________\n\n\n\nSeeding at 2:00 AM ISt - 8:00 AM ISt\nPlease wait during seeding\nPlz seed after download\nThankyou...\n\n","torrent":{"xt":"urn:btih:581ad6e2d3f9cd640b05bbe3f01a60b7346213b5","amp;dn":"Fast.AndFurious-Tokyo.Drift.DvDrip%5BEng-Hindi%5DDual.Audio-ahl07","amp;tr":["udp%3A%2F%2Ftracker.openbittorrent.com%3A80","udp%3A%2F%2Fopen.demonii.com%3A1337","udp%3A%2F%2Ftracker.coppersurfer.tk%3A6969","udp%3A%2F%2Fexodus.desync.com%3A6969"],"infoHash":"581ad6e2d3f9cd640b05bbe3f01a60b7346213b5","infoHashBuffer":{"type":"Buffer","data":[88,26,214,226,211,249,205,100,11,5,187,227,240,26,96,183,52,98,19,181]},"announce":[],"urlList":[]}}